<svg width="38" height="40" viewBox="0 0 38 40" fill="none" xmlns="http://www.w3.org/2000/svg">
<circle cx="19" cy="20" r="12" fill="#4A90E2"/>
<path fill-rule="evenodd" clip-rule="evenodd" d="M19 0.625C18.3005 0.625 17.7333 1.19211 17.7333 1.89167V4.35833C17.7333 5.05789 18.3005 5.625 19 5.625C19.6996 5.625 20.2667 5.05789 20.2667 4.35833V1.89167C20.2667 1.19211 19.6996 0.625 19 0.625ZM30.5206 4.3253C29.9546 3.9141 29.1625 4.03957 28.7513 4.60552L27.3014 6.6011C26.8903 7.16705 27.0157 7.95919 27.5817 8.37038C28.1476 8.78157 28.9398 8.65611 29.351 8.09015L30.8008 6.09458C31.212 5.52862 31.0866 4.73649 30.5206 4.3253ZM36.0446 13.1995C36.7099 12.9834 37.4245 13.3475 37.6407 14.0128C37.8569 14.6781 37.4928 15.3927 36.8275 15.6089L34.4815 16.3711C33.8162 16.5873 33.1016 16.2232 32.8854 15.5579C32.6693 14.8926 33.0334 14.178 33.6987 13.9618L36.0446 13.1995ZM37.6407 25.9872C37.8569 25.3219 37.4928 24.6073 36.8275 24.3911L34.4815 23.6289C33.8162 23.4127 33.1016 23.7768 32.8854 24.4421C32.6693 25.1074 33.0334 25.822 33.6987 26.0382L36.0446 26.8005C36.7099 27.0166 37.4245 26.6525 37.6407 25.9872ZM30.8008 33.9054C31.212 34.4714 31.0866 35.2635 30.5206 35.6747C29.9546 36.0859 29.1625 35.9604 28.7513 35.3945L27.3014 33.3989C26.8903 32.8329 27.0157 32.0408 27.5817 31.6296C28.1476 31.2184 28.9398 31.3439 29.351 31.9098L30.8008 33.9054ZM19 39.375C19.6996 39.375 20.2667 38.8079 20.2667 38.1083V35.6417C20.2667 34.9421 19.6996 34.375 19 34.375C18.3005 34.375 17.7333 34.9421 17.7333 35.6417V38.1083C17.7333 38.8079 18.3005 39.375 19 39.375ZM9.2487 35.3945C8.83751 35.9604 8.04538 36.0859 7.47942 35.6747C6.91346 35.2635 6.788 34.4714 7.19919 33.9054L8.64906 31.9098C9.06026 31.3439 9.85239 31.2184 10.4183 31.6296C10.9843 32.0408 11.1098 32.8329 10.6986 33.3989L9.2487 35.3945ZM0.359304 25.9872C0.57548 26.6525 1.29007 27.0166 1.9554 26.8005L4.30134 26.0382C4.96666 25.822 5.33076 25.1074 5.11459 24.4421C4.89841 23.7768 4.18382 23.4127 3.51849 23.6289L1.17255 24.3911C0.507232 24.6073 0.143128 25.3219 0.359304 25.9872ZM1.17255 15.6089C0.507232 15.3927 0.143128 14.6781 0.359304 14.0128C0.57548 13.3475 1.29007 12.9834 1.9554 13.1995L4.30134 13.9618C4.96666 14.178 5.33076 14.8926 5.11459 15.5579C4.89841 16.2232 4.18381 16.5873 3.51849 16.3711L1.17255 15.6089ZM7.47942 4.3253C6.91346 4.73649 6.788 5.52862 7.19919 6.09458L8.64906 8.09015C9.06026 8.65611 9.85239 8.78157 10.4183 8.37038C10.9843 7.95919 11.1098 7.16705 10.6986 6.6011L9.2487 4.60552C8.83751 4.03957 8.04538 3.9141 7.47942 4.3253Z" fill="#4A90E2"/>
</svg>
