<svg width="40" height="28" viewBox="0 0 40 28" fill="none" xmlns="http://www.w3.org/2000/svg">
<path fill-rule="evenodd" clip-rule="evenodd" d="M5 10.5184C5.73202 10.7883 6.52393 10.9358 7.35052 10.9358C11.081 10.9358 14.1052 7.93221 14.1052 4.22712C14.1052 2.62482 13.5396 1.15372 12.5959 0C15.1675 0.94814 17 3.40719 17 6.29132C17 9.99642 13.9758 13 10.2454 13C8.12816 13 6.23847 12.0325 5 10.5184H5Z" fill="#4A90E2"/>
<path fill-rule="evenodd" clip-rule="evenodd" d="M10 15C14.9706 15 19 10.9706 19 6C19 5.7235 18.9875 5.4499 18.9631 5.17976C20.7946 2.93834 23.6299 1.5 26.8125 1.5C32.3353 1.5 36.8125 5.83138 36.8125 11.1744C36.8125 12.1308 36.669 13.0548 36.4018 13.9274C37.5108 14.5299 38.4099 15.4004 39.0319 16.4738C39.6549 17.5488 40 18.8273 40 20.2442C40 21.6611 39.6549 22.9396 39.0319 24.0145C38.409 25.0895 37.5083 25.9608 36.3972 26.5635C35.2861 27.1661 33.9646 27.5 32.5 27.5H7.5C6.03541 27.5 4.71388 27.1661 3.60277 26.5635C2.49166 25.9608 1.59097 25.0895 0.968051 24.0145C0.345137 22.9396 0 21.6611 0 20.2442C0 18.8273 0.345137 17.5488 0.968051 16.4738C1.59097 15.3989 2.49166 14.5275 3.60277 13.9249C3.95322 13.7348 4.3246 13.5715 4.7148 13.4369C4.71278 13.4235 4.75949 13.4034 4.84168 13.376C6.30239 14.3994 8.08106 15 10 15Z" fill="#4A90E2"/>
</svg>
