<svg width="40" height="32" viewBox="0 0 40 32" fill="none" xmlns="http://www.w3.org/2000/svg">
<path fill-rule="evenodd" clip-rule="evenodd" d="M11 19.5C15.4183 19.5 19 15.9183 19 11.5C19 10.7967 18.9093 10.1147 18.7388 9.4649C20.5582 7.06106 23.4969 5.5 26.8125 5.5C32.3353 5.5 36.8125 9.83138 36.8125 15.1744C36.8125 16.1308 36.669 17.0548 36.4018 17.9274C37.5108 18.5299 38.4099 19.4004 39.0319 20.4738C39.6549 21.5488 40 22.8273 40 24.2442C40 25.6611 39.6549 26.9396 39.0319 28.0145C38.409 29.0895 37.5083 29.9608 36.3972 30.5635C35.2861 31.1661 33.9646 31.5 32.5 31.5H7.5C6.03541 31.5 4.71388 31.1661 3.60277 30.5635C2.49166 29.9608 1.59097 29.0895 0.968051 28.0145C0.345137 26.9396 0 25.6611 0 24.2442C0 22.8273 0.345137 21.5488 0.968051 20.4738C1.59097 19.3989 2.49166 18.5275 3.60277 17.9249C3.95322 17.7348 4.3246 17.5715 4.7148 17.4369C4.71121 17.4131 4.86151 17.368 5.09134 17.2991C5.1814 17.2721 5.28366 17.2414 5.39366 17.2069C6.8372 18.6252 8.81644 19.5 11 19.5Z" fill="#4A90E2"/>
<circle cx="11" cy="11.5" r="6" fill="#4A90E2"/>
<path fill-rule="evenodd" clip-rule="evenodd" d="M10 1.5C10 0.947715 10.4477 0.5 11 0.5C11.5523 0.5 12 0.947715 12 1.5V3.5C12 4.05228 11.5523 4.5 11 4.5C10.4477 4.5 10 4.05228 10 3.5V1.5ZM16.6618 3.19677C17.0168 2.77369 17.6476 2.71851 18.0707 3.07351C18.4937 3.42851 18.5489 4.05927 18.1939 4.48234L16.9084 6.01443C16.5534 6.43751 15.9226 6.49269 15.4995 6.13769C15.0764 5.78269 15.0213 5.15193 15.3763 4.72886L16.6618 3.19677ZM1.47373 17C1.74987 17.4783 2.36146 17.6422 2.83975 17.366L4.57181 16.366C5.0501 16.0899 5.21397 15.4783 4.93783 15C4.66169 14.5217 4.0501 14.3578 3.57181 14.634L1.83975 15.634C1.36146 15.9101 1.19759 16.5217 1.47373 17ZM0.978283 10.7483C0.434389 10.6524 0.0712201 10.1338 0.167123 9.58987C0.263027 9.04598 0.781685 8.68281 1.32558 8.77871L3.29519 9.12601C3.83909 9.22191 4.20226 9.74057 4.10635 10.2845C4.01045 10.8284 3.49179 11.1915 2.9479 11.0956L0.978283 10.7483ZM3.92934 3.07351C3.50627 3.42851 3.45109 4.05927 3.80609 4.48234L5.09166 6.01443C5.44667 6.43751 6.07742 6.49269 6.5005 6.13769C6.92357 5.78269 6.97875 5.15193 6.62375 4.72886L5.33818 3.19677C4.98318 2.77369 4.35242 2.71851 3.92934 3.07351Z" fill="#4A90E2"/>
</svg>
