<svg width="40" height="36" viewBox="0 0 40 36" fill="none" xmlns="http://www.w3.org/2000/svg">
<path fill-rule="evenodd" clip-rule="evenodd" d="M36.4018 12.4274C37.5108 13.0299 38.4099 13.9004 39.0319 14.9738C39.6549 16.0488 40 17.3273 40 18.7442C40 20.1611 39.6549 21.4396 39.0319 22.5145C38.409 23.5895 37.5083 24.4608 36.3972 25.0635C35.2861 25.6661 33.9646 26 32.5 26H7.5C6.03541 26 4.71388 25.6661 3.60277 25.0635C2.49166 24.4608 1.59097 23.5895 0.968051 22.5145C0.345137 21.4396 0 20.1611 0 18.7442C0 17.3273 0.345137 16.0488 0.968051 14.9738C1.59097 13.8989 2.49166 13.0275 3.60277 12.4249C3.95322 12.2348 4.3246 12.0715 4.7148 11.9369C4.66312 11.5931 4.63636 11.2414 4.63636 10.8837C4.63636 6.87645 7.99423 3.62791 12.1364 3.62791C14.289 3.62791 16.2298 4.50526 17.5976 5.9105C19.1152 2.43725 22.6696 0 26.8125 0C32.3353 0 36.8125 4.33138 36.8125 9.67442C36.8125 10.6308 36.669 11.5548 36.4018 12.4274V12.4274Z" fill="#4A90E2"/>
<rect x="6" y="29" width="28" height="2" rx="1" fill="#4A90E2"/>
<rect x="6" y="34" width="28" height="2" rx="1" fill="#4A90E2"/>
</svg>
