<svg width="40" height="41" viewBox="0 0 40 41" fill="none" xmlns="http://www.w3.org/2000/svg">
<path fill-rule="evenodd" clip-rule="evenodd" d="M40 24.04C37.3216 15.2942 29.7473 9 20 9C10.2527 9 2.67839 15.2942 0 24.04C1.1828 22.9557 2.75932 22.294 4.49039 22.294C6.57847 22.294 8.44168 23.2568 9.66026 24.7627C10.8788 23.2568 12.742 22.294 14.8301 22.294C16.9182 22.294 18.7814 23.2568 20 24.7627C21.2186 23.2568 23.0818 22.294 25.1699 22.294C27.258 22.294 29.1212 23.2568 30.3397 24.7627C31.5583 23.2568 33.4215 22.294 35.5096 22.294C37.2407 22.294 38.8172 22.9557 40 24.04Z" fill="#4A90E2"/>
<rect x="10.794" y="0.758793" width="6.73205" height="5" rx="1" transform="rotate(30 10.794 0.758793)" fill="#4A90E2"/>
<rect x="20.794" y="0.758793" width="6.73205" height="5" rx="1" transform="rotate(30 20.794 0.758793)" fill="#4A90E2"/>
<rect x="30.7939" y="0.758793" width="6.73205" height="5" rx="1" transform="rotate(30 30.7939 0.758793)" fill="#4A90E2"/>
<path fill-rule="evenodd" clip-rule="evenodd" d="M13 36C13 37.6569 14.3431 39 16 39C17.6569 39 19 37.6569 19 36V15H21V36C21 38.7614 18.7614 41 16 41C13.2386 41 11 38.7614 11 36C11 35.4477 11.4477 35 12 35C12.5523 35 13 35.4477 13 36Z" fill="#4A90E2"/>
</svg>
