<svg width="40" height="40" viewBox="0 0 40 40" fill="none" xmlns="http://www.w3.org/2000/svg">
<path fill-rule="evenodd" clip-rule="evenodd" d="M36.4018 12.4274C37.5108 13.0299 38.4099 13.9004 39.0319 14.9738C39.6549 16.0488 40 17.3273 40 18.7442C40 20.1611 39.6549 21.4396 39.0319 22.5145C38.409 23.5895 37.5083 24.4608 36.3972 25.0635C35.2861 25.6661 33.9646 26 32.5 26H22.7935L24 19L18.6154 26H7.5C6.03541 26 4.71388 25.6661 3.60277 25.0635C2.49166 24.4608 1.59097 23.5895 0.968051 22.5145C0.345137 21.4396 0 20.1611 0 18.7442C0 17.3273 0.345137 16.0488 0.968051 14.9738C1.59097 13.8989 2.49166 13.0275 3.60277 12.4249C3.95322 12.2348 4.3246 12.0715 4.7148 11.9369C4.66312 11.5931 4.63636 11.2414 4.63636 10.8837C4.63636 6.87645 7.99423 3.62791 12.1364 3.62791C14.289 3.62791 16.2298 4.50526 17.5976 5.9105C19.1152 2.43725 22.6696 0 26.8125 0C32.3353 0 36.8125 4.33138 36.8125 9.67442C36.8125 10.6308 36.669 11.5548 36.4018 12.4274ZM9.5 27.866C9.77614 27.3877 10.3877 27.2239 10.866 27.5C11.3443 27.7761 11.5082 28.3877 11.2321 28.866L7.23205 35.7942C6.95591 36.2725 6.34432 36.4364 5.86603 36.1603C5.38773 35.8841 5.22386 35.2725 5.5 34.7942L9.5 27.866ZM31.866 27.5C31.3877 27.2239 30.7761 27.3877 30.5 27.866L28.5 31.3301C28.2239 31.8084 28.3877 32.42 28.866 32.6962C29.3443 32.9723 29.9559 32.8084 30.232 32.3301L32.2321 28.866C32.5082 28.3877 32.3443 27.7761 31.866 27.5ZM20.6395 30.8571L21.7786 24L15 33.1429H17.3605L16.2214 40L23 30.8571H20.6395Z" fill="#4A90E2"/>
</svg>
