<svg width="38" height="38" viewBox="0 0 38 38" fill="none" xmlns="http://www.w3.org/2000/svg">
<path fill-rule="evenodd" clip-rule="evenodd" d="M10.0556 28C8.15541 25.877 7 23.0734 7 20C7 13.3726 12.3726 8 19 8C25.6274 8 31 13.3726 31 20C31 23.0734 29.8446 25.877 27.9444 28H10.0556" fill="#4A90E2"/>
<path fill-rule="evenodd" clip-rule="evenodd" d="M17.7333 1.89167C17.7333 1.19211 18.3005 0.625 19 0.625C19.6996 0.625 20.2667 1.19211 20.2667 1.89167V4.35833C20.2667 5.05789 19.6996 5.625 19 5.625C18.3005 5.625 17.7333 5.05789 17.7333 4.35833V1.89167ZM28.7513 4.60552C29.1625 4.03957 29.9546 3.9141 30.5206 4.3253C31.0866 4.73649 31.212 5.52862 30.8008 6.09458L29.351 8.09015C28.9398 8.65611 28.1476 8.78157 27.5817 8.37038C27.0157 7.95919 26.8903 7.16705 27.3014 6.6011L28.7513 4.60552ZM37.6407 14.0128C37.4245 13.3475 36.7099 12.9834 36.0446 13.1995L33.6987 13.9618C33.0334 14.178 32.6693 14.8926 32.8854 15.5579C33.1016 16.2232 33.8162 16.5873 34.4815 16.3711L36.8275 15.6089C37.4928 15.3927 37.8569 14.6781 37.6407 14.0128ZM1.17255 15.6089C0.507232 15.3927 0.143128 14.6781 0.359304 14.0128C0.57548 13.3475 1.29007 12.9834 1.9554 13.1995L4.30134 13.9618C4.96666 14.178 5.33076 14.8926 5.11459 15.5579C4.89841 16.2232 4.18382 16.5873 3.51849 16.3711L1.17255 15.6089ZM7.47942 4.3253C6.91346 4.73649 6.788 5.52862 7.19919 6.09458L8.64906 8.09015C9.06026 8.65611 9.85239 8.78157 10.4183 8.37038C10.9843 7.95919 11.1098 7.16705 10.6986 6.6011L9.2487 4.60552C8.83751 4.03957 8.04538 3.9141 7.47942 4.3253ZM36.8275 24.3911C37.4928 24.6073 37.8569 25.3219 37.6407 25.9872C37.4245 26.6525 36.7099 27.0166 36.0446 26.8005L33.6987 26.0382C33.0334 25.822 32.6693 25.1074 32.8854 24.4421C33.1016 23.7768 33.8162 23.4127 34.4815 23.6289L36.8275 24.3911ZM0.359304 25.9872C0.57548 26.6525 1.29007 27.0166 1.9554 26.8005L4.30134 26.0382C4.96666 25.822 5.33076 25.1074 5.11459 24.4421C4.89841 23.7768 4.18382 23.4127 3.51849 23.6289L1.17255 24.3911C0.507232 24.6073 0.143128 25.3219 0.359304 25.9872Z" fill="#4A90E2"/>
<rect x="5" y="36" width="28" height="2" rx="1" fill="#4A90E2"/>
<rect x="5" y="31" width="28" height="2" rx="1" fill="#4A90E2"/>
</svg>
